<?xml version="1.0" encoding="utf-8"?>
<!-- Generator: Adobe Illustrator 15.0.2, SVG Export Plug-In . SVG Version: 6.00 Build 0)  -->
<!DOCTYPE svg PUBLIC "-//W3C//DTD SVG 1.1//EN" "http://www.w3.org/Graphics/SVG/1.1/DTD/svg11.dtd">
<svg version="1.1" id="Layer_1" xmlns="http://www.w3.org/2000/svg" xmlns:xlink="http://www.w3.org/1999/xlink" x="0px" y="0px"
	 width="256px" height="256px" viewBox="0 0 256 256" enable-background="new 0 0 256 256" xml:space="preserve">
<rect width="256" height="256"/>
<radialGradient id="SVGID_1_" cx="127.667" cy="6" r="247.6672" gradientTransform="matrix(0.96 0 0 0.96 5.1195 5.1195)" gradientUnits="userSpaceOnUse">
	<stop  offset="0" style="stop-color:#BACCE0"/>
	<stop  offset="0.2606" style="stop-color:#232099"/>
	<stop  offset="0.8727" style="stop-color:#232070"/>
	<stop  offset="1" style="stop-color:#2320B8"/>
</radialGradient>
<rect x="8" y="8" fill="url(#SVGID_1_)" width="240" height="240"/>
<rect x="16" y="16" fill="#232099" width="224" height="224"/>
<defs>
	<filter id="Adobe_OpacityMaskFilter" filterUnits="userSpaceOnUse" x="0" y="0" width="256" height="125">
		<feColorMatrix  type="matrix" values="1 0 0 0 0  0 1 0 0 0  0 0 1 0 0  0 0 0 1 0"/>
	</filter>
</defs>
<mask maskUnits="userSpaceOnUse" x="0" y="0" width="256" height="125" id="SVGID_2_">
	<g filter="url(#Adobe_OpacityMaskFilter)">
		
			<radialGradient id="SVGID_3_" cx="127" cy="5.5146" r="172.2499" fx="78.9419" fy="5.2028" gradientTransform="matrix(1 0 0 1.0386 0 -4.191399e-004)" gradientUnits="userSpaceOnUse">
			<stop  offset="0" style="stop-color:#878787"/>
			<stop  offset="0.2003" style="stop-color:#848484"/>
			<stop  offset="0.3363" style="stop-color:#7B7B7B"/>
			<stop  offset="0.4533" style="stop-color:#6C6C6C"/>
			<stop  offset="0.5596" style="stop-color:#575757"/>
			<stop  offset="0.6576" style="stop-color:#3B3B3B"/>
			<stop  offset="0.6667" style="stop-color:#383838"/>
			<stop  offset="1" style="stop-color:#000000"/>
		</radialGradient>
		<rect fill="url(#SVGID_3_)" width="256" height="126"/>
	</g>
</mask>
<rect mask="url(#SVGID_2_)" fill="#E6E6E6" width="256" height="125"/>
<g>
	<path fill="#FFFFFF" d="M131.095,148.896v-22.152h57.22v52.377c-5.561,5.381-13.618,10.12-24.17,14.215
		c-10.554,4.095-21.242,6.144-32.063,6.144c-13.753,0-25.74-2.884-35.965-8.654c-10.224-5.77-17.908-14.021-23.049-24.754
		c-5.143-10.731-7.713-22.406-7.713-35.022c0-13.69,2.87-25.858,8.61-36.502c5.74-10.642,14.14-18.803,25.202-24.484
		c8.431-4.364,18.924-6.547,31.48-6.547c16.323,0,29.072,3.423,38.251,10.269c9.178,6.847,15.081,16.309,17.713,28.386
		l-26.367,4.933c-1.854-6.458-5.337-11.554-10.449-15.292c-5.111-3.736-11.495-5.605-19.147-5.605
		c-11.601,0-20.823,3.677-27.668,11.032c-6.847,7.354-10.269,18.266-10.269,32.735c0,15.605,3.467,27.31,10.403,35.112
		c6.936,7.803,16.023,11.704,27.264,11.704c5.561,0,11.136-1.091,16.727-3.273c5.59-2.182,10.389-4.828,14.395-7.938v-16.682
		H131.095z"/>
</g>
</svg>
