<?xml version="1.0" encoding="utf-8"?>
<!-- Generator: Adobe Illustrator 15.0.2, SVG Export Plug-In . SVG Version: 6.00 Build 0)  -->
<!DOCTYPE svg PUBLIC "-//W3C//DTD SVG 1.1//EN" "http://www.w3.org/Graphics/SVG/1.1/DTD/svg11.dtd">
<svg version="1.1" id="Layer_1" xmlns="http://www.w3.org/2000/svg" xmlns:xlink="http://www.w3.org/1999/xlink" x="0px" y="0px"
	 width="256px" height="256px" viewBox="0 0 256 256" enable-background="new 0 0 256 256" xml:space="preserve">
<rect width="256" height="256"/>
<radialGradient id="SVGID_1_" cx="127.667" cy="6" r="247.6672" gradientTransform="matrix(0.96 0 0 0.96 5.1195 5.1195)" gradientUnits="userSpaceOnUse">
	<stop  offset="0" style="stop-color:#DBC1A7"/>
	<stop  offset="0.2606" style="stop-color:#5C3612"/>
	<stop  offset="0.8727" style="stop-color:#854F1A"/>
	<stop  offset="0.9879" style="stop-color:#613A13"/>
</radialGradient>
<rect x="8" y="8" fill="url(#SVGID_1_)" width="240" height="240"/>
<rect x="16" y="16" fill="#9B5C1E" width="224" height="224"/>
<defs>
	<filter id="Adobe_OpacityMaskFilter" filterUnits="userSpaceOnUse" x="0" y="0" width="256" height="125">
		<feColorMatrix  type="matrix" values="1 0 0 0 0  0 1 0 0 0  0 0 1 0 0  0 0 0 1 0"/>
	</filter>
</defs>
<mask maskUnits="userSpaceOnUse" x="0" y="0" width="256" height="125" id="SVGID_2_">
	<g filter="url(#Adobe_OpacityMaskFilter)">
		
			<radialGradient id="SVGID_3_" cx="127" cy="5.5146" r="172.2499" fx="78.9419" fy="5.2028" gradientTransform="matrix(1 0 0 1.0386 0 -4.191399e-004)" gradientUnits="userSpaceOnUse">
			<stop  offset="0" style="stop-color:#878787"/>
			<stop  offset="0.2003" style="stop-color:#848484"/>
			<stop  offset="0.3363" style="stop-color:#7B7B7B"/>
			<stop  offset="0.4533" style="stop-color:#6C6C6C"/>
			<stop  offset="0.5596" style="stop-color:#575757"/>
			<stop  offset="0.6576" style="stop-color:#3B3B3B"/>
			<stop  offset="0.6667" style="stop-color:#383838"/>
			<stop  offset="1" style="stop-color:#000000"/>
		</radialGradient>
		<rect fill="url(#SVGID_3_)" width="256" height="126"/>
	</g>
</mask>
<rect mask="url(#SVGID_2_)" fill="#E6E6E6" width="256" height="125"/>
<g>
	<path fill="#FFFFFF" d="M159.166,148.896l25.74,8.161c-3.946,14.351-10.509,25.009-19.687,31.974
		c-9.179,6.966-20.822,10.448-34.933,10.448c-17.459,0-31.809-5.964-43.049-17.893c-11.242-11.928-16.861-28.235-16.861-48.924
		c0-21.883,5.65-38.878,16.951-50.986c11.3-12.108,26.157-18.162,44.574-18.162c16.083,0,29.147,4.753,39.192,14.26
		c5.978,5.621,10.462,13.692,13.452,24.215l-26.277,6.278c-1.556-6.816-4.798-12.197-9.731-16.144
		c-4.933-3.946-10.927-5.919-17.981-5.919c-9.747,0-17.654,3.498-23.722,10.493c-6.069,6.996-9.103,18.327-9.103,33.991
		c0,16.623,2.989,28.461,8.969,35.516c5.978,7.056,13.751,10.583,23.318,10.583c7.054,0,13.123-2.242,18.206-6.727
		C153.306,165.577,156.953,158.522,159.166,148.896z"/>
</g>
</svg>
